<svg xmlns="http://www.w3.org/2000/svg" viewBox="0 0 1024 1024">
	<path fill="#F4B821" d="M511.37 327.87c-24.5.28-31.17-7.64-46.47-7.74-18.82-.13-38.33 11.64-65.83 46.47-18.92 23.96-38.32 69.8-60.03 108.43-19.49 34.69-41.99 62.79-48.41 77.45-25.3 57.8-29.15 61.86-30.98 96.81-3.09 59.05 27.33 103.95 69.7 166.52 32.59 48.11 57.39 92.48 96.82 96.82 4.59.5 29.05 0 54.22-5.81 19.78-4.57 29.94-17.8 34.86-17.42 12.58.95 19.33 10.43 27.11 13.55 17.92 7.19 29.98 10.33 50.34 9.68 42.66-1.34 72.92-47.57 102.62-92.94 38.44-58.72 70.23-107.29 67.77-172.33-1.36-35.9 1.42-46.62-21.29-87.14-10.79-19.24-29.05-38.73-54.22-83.27-32.54-57.57-43.8-124.48-85.2-143.29-26.4-11.98-48.41-11.62-48.41-11.62-17.92.32-22.79 5.6-42.6 5.83z" />
	<path fill="#39BC39" d="M370.37 111.31c-1.18 7.88-2.07 19.37 0 32.92 2.5 16.32 8.08 27.75 13.55 38.73 11.2 22.46 24.26 37.35 29.05 42.6 8.18 8.95 25.36 27.38 54.21 40.66 18.8 8.66 36 12.1 48.41 13.55 6.23-5.7 21.68-21.44 21.3-42.6-.2-10.98-4.66-19.08-13.55-34.86-6.55-11.61-14.4-25.52-29.05-40.66-30.78-31.82-65.67-42.31-73.58-44.54-19.84-5.57-37.44-6.34-50.34-5.8z" />
	<path fill="#9E5812" d="M497.42 331.1c1.94-29.05 14.05-68.64 52.28-102.62 7.74-6.88 28.58-25.47 54.21-36.79 25.79-11.38 56.36-15.49 63.89-15.49 2.08 0 13.22 4.03 15.49 9.68 2.68 6.66-4.45 16.38-9.68 17.43-26.45 5.29-67.34 8.87-102.62 44.54-29.09 29.4-40.66 46.47-48.41 83.26-.15.75-25.82 9.98-25.16-.01zm0 0" />
	<path fill="#29ABE2" d="M726.46 791.17c2.55-5.55 3.95-11.47 3.95-17.61 0-31.77-36.84-57.54-82.3-57.54-38.84 0-71.37 18.82-80.02 44.13-10.68-4.27-23.03-6.73-36.22-6.73-40.34 0-73.03 22.87-73.03 51.07 0 5.96 1.47 11.68 4.16 16.99-12.03-5.73-26.57-9.08-42.21-9.08-41.47 0-75.09 23.5-75.09 52.5 0 28.75 33.06 52.1 74.06 52.48v.01h1.03c.13 0 .26-.01.4-.01l294.83-1.43v-.02c.34 0 .68.02 1.03.02 49.43 0 89.5-28.02 89.5-62.57-.04-32.32-35.1-58.91-80.09-62.21zm0 0" />
</svg>